<svg width="3467" height="1882" xmlns="http://www.w3.org/2000/svg" xmlns:xlink="http://www.w3.org/1999/xlink" overflow="hidden"><defs><filter id="fx0" x="-10%" y="-10%" width="120%" height="120%" filterUnits="userSpaceOnUse" primitiveUnits="userSpaceOnUse"><feComponentTransfer color-interpolation-filters="sRGB"><feFuncR type="discrete" tableValues="0 0"/><feFuncG type="discrete" tableValues="0 0"/><feFuncB type="discrete" tableValues="0 0"/><feFuncA type="linear" slope="0.431373" intercept="0"/></feComponentTransfer><feGaussianBlur stdDeviation="1.60618 1.60618"/></filter><filter id="fx1" x="-10%" y="-10%" width="120%" height="120%" filterUnits="userSpaceOnUse" primitiveUnits="userSpaceOnUse"><feComponentTransfer color-interpolation-filters="sRGB"><feFuncR type="discrete" tableValues="0 0"/><feFuncG type="discrete" tableValues="0 0"/><feFuncB type="discrete" tableValues="0 0"/><feFuncA type="linear" slope="0.431373" intercept="0"/></feComponentTransfer><feGaussianBlur stdDeviation="1.60618 1.60618"/></filter><filter id="fx2" x="-10%" y="-10%" width="120%" height="120%" filterUnits="userSpaceOnUse" primitiveUnits="userSpaceOnUse"><feComponentTransfer color-interpolation-filters="sRGB"><feFuncR type="discrete" tableValues="0 0"/><feFuncG type="discrete" tableValues="0 0"/><feFuncB type="discrete" tableValues="0 0"/><feFuncA type="linear" slope="0.431373" intercept="0"/></feComponentTransfer><feGaussianBlur stdDeviation="1.60618 1.60618"/></filter><filter id="fx3" x="-10%" y="-10%" width="120%" height="120%" filterUnits="userSpaceOnUse" primitiveUnits="userSpaceOnUse"><feComponentTransfer color-interpolation-filters="sRGB"><feFuncR type="discrete" tableValues="0 0"/><feFuncG type="discrete" tableValues="0 0"/><feFuncB type="discrete" tableValues="0 0"/><feFuncA type="linear" slope="0.431373" intercept="0"/></feComponentTransfer><feGaussianBlur stdDeviation="1.60618 1.60618"/></filter><filter id="fx4" x="-10%" y="-10%" width="120%" height="120%" filterUnits="userSpaceOnUse" primitiveUnits="userSpaceOnUse"><feComponentTransfer color-interpolation-filters="sRGB"><feFuncR type="discrete" tableValues="0 0"/><feFuncG type="discrete" tableValues="0 0"/><feFuncB type="discrete" tableValues="0 0"/><feFuncA type="linear" slope="0.431373" intercept="0"/></feComponentTransfer><feGaussianBlur stdDeviation="1.33754 1.33754"/></filter><clipPath id="clip5"><rect x="150" y="350" width="3467" height="1882"/></clipPath><clipPath id="clip6"><rect x="3158" y="1339" width="179" height="179"/></clipPath><clipPath id="clip7"><rect x="3158" y="1339" width="179" height="179"/></clipPath><clipPath id="clip8"><rect x="3158" y="1339" width="179" height="179"/></clipPath><linearGradient x1="3246.99" y1="1340.79" x2="3246.99" y2="1517.21" gradientUnits="userSpaceOnUse" spreadMethod="pad" id="fill9"><stop offset="0" stop-color="#B3B2B3"/><stop offset="0.216" stop-color="#AFAEAF"/><stop offset="0.44" stop-color="#A2A2A2"/><stop offset="0.577" stop-color="#979797"/><stop offset="1" stop-color="#979797"/></linearGradient><clipPath id="clip10"><rect x="3153" y="727" width="179" height="179"/></clipPath><clipPath id="clip11"><rect x="3153" y="727" width="179" height="179"/></clipPath><clipPath id="clip12"><rect x="3153" y="727" width="179" height="179"/></clipPath><linearGradient x1="3244.29" y1="913.01" x2="3241.52" y2="646.9" gradientUnits="userSpaceOnUse" spreadMethod="pad" id="fill13"><stop offset="0" stop-color="#198AB3"/><stop offset="0" stop-color="#198AB3"/><stop offset="0.09" stop-color="#22A5CB"/><stop offset="0.19" stop-color="#29BADE"/><stop offset="0.29" stop-color="#2EC9EB"/><stop offset="0.42" stop-color="#31D1F3"/><stop offset="0.62" stop-color="#32D4F5"/><stop offset="1" stop-color="#32D4F5"/></linearGradient><clipPath id="clip14"><rect x="49" y="33" width="380" height="70"/></clipPath><clipPath id="clip15"><rect x="0" y="0" width="476" height="166"/></clipPath><clipPath id="clip16"><rect x="-4" y="-2" width="392" height="21"/></clipPath><clipPath id="clip17"><rect x="0" y="0" width="387" height="16"/></clipPath><clipPath id="clip18"><rect x="45" y="31" width="358" height="72"/></clipPath><clipPath id="clip19"><rect x="0" y="0" width="446" height="166"/></clipPath><clipPath id="clip20"><rect x="-4" y="-2" width="364" height="21"/></clipPath><clipPath id="clip21"><rect x="0" y="0" width="358" height="16"/></clipPath><clipPath id="clip22"><rect x="39" y="25" width="915" height="61"/></clipPath><clipPath id="clip23"><rect x="0" y="0" width="984" height="127"/></clipPath></defs><g clip-path="url(#clip5)" transform="translate(-150 -350)"><rect x="150.5" y="350.5" width="3466" height="1881" stroke="#2F528F" stroke-width="1.14583" stroke-miterlimit="8" fill="none"/><g clip-path="url(#clip6)"><g clip-path="url(#clip7)"><g clip-path="url(#clip8)"><path d="M3162.02 1405.47C3175 1358.55 3223.56 1331.03 3270.48 1344.01 3300.35 1352.27 3323.69 1375.61 3331.95 1405.47L3315.13 1405.47C3302.15 1367.82 3261.1 1347.82 3223.44 1360.81 3202.48 1368.04 3186.01 1384.51 3178.78 1405.47ZM3314.82 1453.56C3301.25 1491.02 3259.88 1510.39 3222.42 1496.83 3202.3 1489.54 3186.45 1473.69 3179.16 1453.56L3162.32 1453.56C3175.88 1500.32 3224.77 1527.24 3271.53 1513.68 3300.55 1505.27 3323.24 1482.58 3331.65 1453.56Z" fill="url(#fill9)"/><path d="M3253.33 1469.95 3232.17 1422.37 3223.27 1437.75 3168.81 1437.75C3164.38 1437.75 3160.79 1434.16 3160.79 1429.73 3160.79 1425.3 3164.38 1421.71 3168.81 1421.71L3214.03 1421.71 3234.06 1387.1 3257.12 1438.98 3270.73 1421.54 3325.22 1421.66C3329.65 1421.66 3333.24 1425.25 3333.24 1429.68 3333.24 1434.11 3329.65 1437.7 3325.22 1437.7L3325.22 1437.7 3278.59 1437.59Z" fill="#50E6FF"/></g></g></g><g clip-path="url(#clip10)"><g clip-path="url(#clip11)"><g clip-path="url(#clip12)"><path d="M3286.21 810.462C3286.21 821.221 3277.49 829.943 3266.73 829.943 3255.97 829.943 3247.25 821.221 3247.25 810.462 3247.25 799.703 3255.97 790.981 3266.73 790.981 3277.49 790.981 3286.21 799.703 3286.21 810.462Z" fill="#FFFFFF"/><path d="M3314.69 868.411C3314.69 876.877 3307.83 883.739 3299.37 883.739 3290.9 883.739 3284.04 876.877 3284.04 868.411 3284.04 859.946 3290.9 853.083 3299.37 853.083 3307.83 853.083 3314.69 859.946 3314.69 868.411Z" fill="#FFFFFF"/><path d="M3251.9 857.929C3251.9 865.193 3246.01 871.081 3238.75 871.081 3231.48 871.081 3225.6 865.193 3225.6 857.929 3225.6 850.665 3231.48 844.777 3238.75 844.777 3246.01 844.777 3251.9 850.665 3251.9 857.929Z" fill="#FFFFFF"/><path d="M3245.57 757.755C3245.57 766.766 3238.27 774.071 3229.25 774.071 3220.24 774.071 3212.94 766.766 3212.94 757.755 3212.94 748.743 3220.24 741.438 3229.25 741.438 3238.27 741.438 3245.57 748.743 3245.57 757.755Z" fill="#FFFFFF"/><path d="M3198.7 817.879C3198.7 825.143 3192.81 831.031 3185.55 831.031 3178.28 831.031 3172.39 825.143 3172.39 817.879 3172.39 810.615 3178.28 804.727 3185.55 804.727 3192.81 804.727 3198.7 810.615 3198.7 817.879Z" fill="#FFFFFF"/><path d="M3302.93 865.346 3270 807.693 3266.73 809.572 3269.4 807.595 3232.12 754.59 3225.3 759.535 3258.33 806.507 3185.15 812.539 3185.84 821.043 3258.33 815.011 3234.3 854.962 3241.52 859.313 3266.24 818.176 3295.61 869.499 3302.93 865.346Z" fill="#949494"/><path d="M3327.35 739.163 3327.35 739.163C3327.35 735.177 3324.12 731.945 3320.13 731.945L3282.56 731.945C3280.59 731.945 3279 733.538 3279 735.505L3279 749.448C3279 751.414 3280.59 753.008 3282.56 753.008L3305.79 753.008 3305.79 775.752C3305.85 777.751 3307.45 779.359 3309.45 779.411L3323.3 779.411C3325.3 779.359 3326.9 777.751 3326.96 775.752L3326.96 739.163Z" fill="#949494"/><path d="M3203.44 878.992 3179.81 878.992 3179.81 856.248C3179.76 854.249 3178.15 852.641 3176.15 852.589L3162.31 852.589C3160.31 852.641 3158.7 854.249 3158.65 856.248L3158.65 892.837 3158.65 892.837C3158.7 896.785 3161.92 899.957 3165.87 899.957L3203.44 899.957C3205.41 899.957 3207 898.363 3207 896.397L3207 882.552C3207 880.586 3205.41 878.992 3203.44 878.992Z" fill="#949494"/><path d="M3266.73 791.179C3277.66 791.182 3286.51 800.04 3286.51 810.963 3286.5 821.886 3277.64 830.737 3266.72 830.735 3255.8 830.732 3246.95 821.873 3246.95 810.951 3246.95 810.788 3246.95 810.625 3246.96 810.462 3247.22 799.733 3256 791.176 3266.73 791.179ZM3213.33 757.755C3213.28 766.82 3220.59 774.212 3229.65 774.264 3238.72 774.316 3246.11 767.009 3246.16 757.943 3246.22 748.877 3238.91 741.485 3229.84 741.433 3229.68 741.432 3229.52 741.434 3229.35 741.438 3220.46 741.6 3213.33 748.858 3213.33 757.755ZM3172.39 817.78C3172.39 825.044 3178.28 830.932 3185.55 830.932 3192.81 830.932 3198.7 825.044 3198.7 817.78 3198.7 810.516 3192.81 804.628 3185.55 804.628 3178.28 804.628 3172.39 810.516 3172.39 817.78ZM3225.6 857.83C3225.54 865.148 3231.43 871.125 3238.75 871.18 3246.07 871.234 3252.04 865.346 3252.1 858.028 3252.15 850.71 3246.26 844.733 3238.95 844.678 3238.91 844.678 3238.88 844.678 3238.85 844.678 3231.58 844.623 3225.65 850.467 3225.6 857.731 3225.6 857.764 3225.6 857.797 3225.6 857.83ZM3284.14 868.411C3284.08 876.876 3290.9 883.783 3299.37 883.838 3307.83 883.892 3314.74 877.074 3314.79 868.609 3314.85 860.144 3308.03 853.238 3299.56 853.182 3299.53 853.182 3299.5 853.182 3299.47 853.182 3291.11 853.073 3284.25 859.757 3284.14 868.113 3284.14 868.212 3284.14 868.311 3284.14 868.411Z" fill="url(#fill13)"/></g></g></g><rect x="2350" y="656" width="499" height="318" fill="#FFFFFF"/><path d="M2344.84 650.844 2854.16 650.844 2854.16 979.156 2344.84 979.156ZM2348.28 975.719 2850.72 975.719 2850.72 654.281 2348.28 654.281ZM2351.72 657.719 2847.28 657.719 2847.28 972.281 2351.72 972.281ZM2355.16 968.844 2843.84 968.844 2843.84 661.156 2355.16 661.156Z" fill="#4472C4"/><g clip-path="url(#clip14)" filter="url(#fx0)" transform="translate(2365 702)"><g clip-path="url(#clip15)"><path d="M6.77246-56.4966 25.7353-56.4966C34.9554-56.4966 41.8586-53.9064 46.4448-48.7261 50.6033-43.9972 52.6826-37.2723 52.6826-28.5513 52.6826-18.6183 49.7598-11.1449 43.9141-6.13086 39.0426-1.94857 32.5435 0.142578 24.4165 0.142578L6.77246 0.142578ZM16.5391-48.9043 16.5391-7.44971 24.2026-7.44971C30.3335-7.44971 34.9198-9.35075 37.9614-13.1528 40.813-16.6935 42.2388-21.8026 42.2388-28.48 42.2388-42.0962 36.3931-48.9043 24.7017-48.9043ZM102.486-56.4966 102.486-48.5478 85.6265-48.5478 85.6265 0.142578 75.6816 0.142578 75.6816-48.5478 58.9644-48.5478 58.9644-56.4966ZM111.616-56.4966 130.579-56.4966C139.799-56.4966 146.702-53.9064 151.289-48.7261 155.447-43.9972 157.526-37.2723 157.526-28.5513 157.526-18.6183 154.604-11.1449 148.758-6.13086 143.886-1.94857 137.387 0.142578 129.26 0.142578L111.616 0.142578ZM121.383-48.9043 121.383-7.44971 129.046-7.44971C135.177-7.44971 139.763-9.35075 142.805-13.1528 145.657-16.6935 147.083-21.8026 147.083-28.48 147.083-42.0962 141.237-48.9043 129.545-48.9043ZM178.28-56.4966 178.28-7.80615 204.835-7.80615 204.835 0.142578 168.335 0.142578 168.335-56.4966ZM235.366-56.4966 255.363-56.4966C268.836-56.4966 275.573-51.0905 275.573-40.2783 275.573-34.6465 273.565-30.381 269.549-27.4819 265.961-24.9155 261.03-23.6323 254.757-23.6323L245.204-23.6323 245.204 0.142578 235.366 0.142578ZM245.204-49.1182 245.204-31.0107 254.472-31.0107C261.909-31.0107 265.628-34.0762 265.628-40.207 265.628-46.1478 262.028-49.1182 254.828-49.1182ZM294.411-39.9219 294.411-32.8999C296.17-35.5138 298.261-37.5218 300.685-38.9238 302.895-40.1833 305.188-40.813 307.564-40.813 311.2-40.813 314.063-39.6248 316.155-37.2485 318.056-35.1099 319.006-32.2821 319.006-28.7651L319.006 0.142578 309.596 0.142578 309.596-26.1987C309.596-30.6899 307.742-32.9355 304.035-32.9355 302.325-32.9355 300.566-32.2464 298.76-30.8682 297.215-29.6562 295.861-28.076 294.697-26.1274L294.697 0.142578 285.5 0.142578 285.5-39.9219ZM331.616-56.4966 351.613-56.4966C365.086-56.4966 371.823-51.0905 371.823-40.2783 371.823-34.6465 369.815-30.381 365.799-27.4819 362.211-24.9155 357.28-23.6323 351.007-23.6323L341.454-23.6323 341.454 0.142578 331.616 0.142578ZM341.454-49.1182 341.454-31.0107 350.722-31.0107C358.159-31.0107 361.878-34.0762 361.878-40.207 361.878-46.1478 358.278-49.1182 351.078-49.1182Z" transform="matrix(1 0 0 1 50.1577 96)"/></g></g><text font-family="Yu Gothic,Yu Gothic_MSFontService,sans-serif" font-weight="700" font-size="73" transform="matrix(1 0 0 1 2411.75 795)">DTDL PnP</text><g clip-path="url(#clip16)" filter="url(#fx1)" transform="translate(2410 799)"><g clip-path="url(#clip17)"><path d="M5.51172 6.40392 99.2617 6.40392 193.012 6.40392 286.762 6.40392 380.512 6.40392 380.512 10.4039 286.762 10.4039 193.012 10.4039 99.2617 10.4039 5.51172 10.4039Z" fill-rule="evenodd"/></g></g><path d="M2412.1 801.997 2505.85 801.997 2599.6 801.997 2693.35 801.997 2787.1 801.997 2787.1 805.997 2693.35 805.997 2599.6 805.997 2505.85 805.997 2412.1 805.997Z" fill-rule="evenodd"/><g clip-path="url(#clip18)" filter="url(#fx2)" transform="translate(2380 790)"><g clip-path="url(#clip19)"><path d="M43.6645-43.3437 34.1118-40.7417C32.6385-46.9201 29.276-50.0093 24.0244-50.0093 20.8402-50.0093 18.4045-49.2607 16.7173-47.7637 15.2915-46.4805 14.5786-44.7695 14.5786-42.6309 14.5786-39.9694 15.3984-37.9495 17.0381-36.5713 18.5352-35.3356 21.1847-34.195 24.9868-33.1494L27.981-32.2583C34.6108-30.4523 39.1496-28.0879 41.5972-25.165 43.5695-22.7887 44.5557-19.5807 44.5557-15.541 44.5557-10.0518 42.6071-5.82194 38.71-2.85156 35.1455-0.118815 30.2741 1.24756 24.0957 1.24756 18.1312 1.24756 13.2954-0.130697 9.58838-2.88721 6.23779-5.38232 3.94466-8.89925 2.70898-13.438L12.1191-16.4321C12.9033-12.939 14.436-10.3013 16.7173-8.51904 18.6896-6.97445 21.0778-6.20215 23.8818-6.20215 31.1058-6.20215 34.7178-8.89925 34.7178-14.2935 34.7178-17.0024 33.9217-19.0223 32.3296-20.353 30.785-21.66 27.8978-22.9075 23.668-24.0957L20.7451-24.9512C14.4479-26.8284 10.123-29.2166 7.77051-32.1157 5.79818-34.5395 4.81201-37.8307 4.81201-41.9893 4.81201-46.7656 6.66553-50.5915 10.3726-53.4668 13.7707-56.1282 18.2262-57.459 23.7393-57.459 34.0286-57.459 40.6704-52.7539 43.6645-43.3437ZM63.167-39.9219 63.167 0.142578 53.9707 0.142578 53.9707-39.9219ZM63.5591-56.4966 63.5591-47.0864 53.6143-47.0864 53.6143-56.4966ZM84.0085-39.9219 84.0085-32.8999C87.4303-38.1753 91.6364-40.813 96.6266-40.813 99.4069-40.813 101.7-40.005 103.506-38.3892 105.003-37.0109 106.001-35.2049 106.5-32.9712 109.946-38.1991 114.176-40.813 119.19-40.813 122.73-40.813 125.487-39.6248 127.459-37.2485 129.241-35.1336 130.132-32.3058 130.132-28.7651L130.132 0.142578 120.936 0.142578 120.936-26.1987C120.936-30.6899 119.083-32.9355 115.376-32.9355 113.712-32.9355 112.061-32.2227 110.421-30.7969 109.019-29.5612 107.878-28.0047 106.999-26.1274L106.999 0.142578 97.9455 0.142578 97.9455-26.1987C97.9455-30.6899 96.2939-32.9355 92.9909-32.9355 91.3037-32.9355 89.6165-32.2345 87.9294-30.8325 86.4561-29.5968 85.2441-28.0285 84.2936-26.1274L84.2936 0.142578 75.2399 0.142578 75.2399-39.9219ZM175.563-39.9219 175.563 0.142578 166.652 0.142578 166.652-6.77246C165.107-4.15853 163.099-2.13867 160.628-0.712891 158.442 0.546549 156.113 1.17627 153.642 1.17627 150.006 1.17627 147.131 0.0594075 145.016-2.17432 143.043-4.28922 142.057-7.11702 142.057-10.6577L142.057-39.9219 151.467-39.9219 151.467-13.2954C151.467-8.89925 153.345-6.70117 157.099-6.70117 158.905-6.70117 160.735-7.43782 162.589-8.91113 164.157-10.1706 165.416-11.727 166.367-13.5806L166.367-39.9219ZM196.728-57.5303 196.728 0.142578 187.532 0.142578 187.532-57.5303ZM207.553-29.8345C209.621-37.201 215.145-40.8843 224.128-40.8843 234.489-40.8843 239.669-36.4525 239.669-27.5889L239.669-11.6914C239.669-7.81803 239.883-3.87337 240.311 0.142578L231.863 0.142578C231.601-1.35449 231.376-3.10107 231.186-5.09717 228.31-0.962402 224.104 1.10498 218.567 1.10498 214.599 1.10498 211.486-0.106934 209.229-2.53076 207.232-4.66943 206.234-7.42594 206.234-10.8003 206.234-17.9292 210.595-22.3372 219.316-24.0244 222.548-24.6423 226.362-25.0225 230.758-25.165L230.758-27.4463C230.758-30.1077 230.128-31.9969 228.869-33.1138 227.776-34.0643 226.088-34.5395 223.807-34.5395 221.716-34.5395 219.981-33.8623 218.603-32.5078 217.344-31.2721 216.524-29.6087 216.144-27.5176ZM230.758-19.4976C227.692-19.4263 224.627-19.0342 221.562-18.3213 217.189-17.2757 215.003-15.0063 215.003-11.5132 215.003-7.47347 217.142-5.45361 221.419-5.45361 225.316-5.45361 228.429-7.65169 230.758-12.0479ZM262.641-53.0034 262.641-39.9219 271.624-39.9219 271.624-33.2207 262.641-33.2207 262.641-11.228C262.641-7.37842 264.293-5.45361 267.596-5.45361 269.378-5.45361 270.934-5.60807 272.265-5.91699L271.909 0.641602C269.889 0.950521 267.501 1.10498 264.744 1.10498 260.681 1.10498 257.758 0.130697 255.976-1.81787 254.383-3.55257 253.587-6.13086 253.587-9.55273L253.587-33.2207 247.599-33.2207 247.599-39.9219 253.587-39.9219 253.587-50.936ZM295.526-40.813C301.372-40.813 305.946-38.71 309.249-34.5039 312.172-30.7731 313.633-25.9136 313.633-19.9253 313.633-13.0103 311.756-7.62793 308.002-3.77832 304.77-0.47526 300.588 1.17627 295.455 1.17627 289.561 1.17627 284.975-0.926758 281.696-5.13281 278.797-8.83984 277.347-13.6994 277.347-19.7114 277.347-26.6027 279.236-31.985 283.015-35.8584 286.27-39.1615 290.441-40.813 295.526-40.813ZM295.526-34.1831C289.68-34.1831 286.757-29.4067 286.757-19.854 286.757-10.2537 289.657-5.45361 295.455-5.45361 301.3-5.45361 304.223-10.2537 304.223-19.854 304.223-29.4067 301.324-34.1831 295.526-34.1831ZM344.343-40.813 343.737-32.187C338.628-32.187 334.838-28.8008 332.367-22.0283L332.367 0.142578 323.313 0.142578 323.313-39.9219 331.939-39.9219 331.939-30.084C334.529-37.2366 338.664-40.813 344.343-40.813Z" transform="matrix(1 0 0 1 50.0535 96)"/></g></g><text font-family="Yu Gothic,Yu Gothic_MSFontService,sans-serif" font-weight="700" font-size="73" transform="matrix(1 0 0 1 2426.65 883)">Simulator</text><g clip-path="url(#clip20)" filter="url(#fx3)" transform="translate(2425 887)"><g clip-path="url(#clip21)"><path d="M5.51171 6.40392 92.0117 6.40392 178.512 6.40392 265.012 6.40392 351.512 6.40392 351.512 10.4039 265.012 10.4039 178.512 10.4039 92.0117 10.4039 5.51171 10.4039Z" fill-rule="evenodd"/></g></g><path d="M2427.1 889.997 2513.6 889.997 2600.1 889.997 2686.6 889.997 2773.1 889.997 2773.1 893.997 2686.6 893.997 2600.1 893.997 2513.6 893.997 2427.1 893.997Z" fill-rule="evenodd"/><path d="M2849.51 813.208 3149.29 814.123 3149.27 818.706 2849.49 817.792ZM3122.99 798.313 3153.83 816.428 3122.88 834.355C3121.78 834.989 3120.38 834.616 3119.75 833.521 3119.11 832.425 3119.49 831.023 3120.58 830.389L3148.13 814.431 3148.12 818.39 3120.67 802.265C3119.58 801.624 3119.21 800.219 3119.85 799.128 3120.49 798.037 3121.9 797.672 3122.99 798.313Z" fill="#4472C4"/><path d="M0-2.29167 457.216-2.29167 457.216 535.023 452.633 535.023 452.633 0 454.924 2.29167 0 2.29167ZM468.674 530.44 454.924 557.94 441.174 530.44Z" fill="#4472C4" transform="matrix(1.83697e-16 1 1 -1.83697e-16 2600.5 974.5)"/><text font-family="Yu Gothic,Yu Gothic_MSFontService,sans-serif" font-weight="400" font-size="55" transform="matrix(1 0 0 1 2632.67 1196)">Export <tspan font-size="55" x="0" y="66">type.json</tspan><tspan font-size="55" x="0" y="132">hierarchies.json</tspan><tspan font-size="55" x="0" y="198">Instance.jso</tspan><tspan font-size="55" x="307.656" y="198">n</tspan></text><path d="M1411.5 650.5 1741.5 650.5 1741.5 925.499 1686.5 980.5 1411.5 980.5Z" fill="#5B9BD5" fill-rule="evenodd"/><path d="M1686.5 980.5 1697.5 936.499 1741.5 925.499Z" fill="#497DAB" fill-rule="evenodd"/><path d="M1686.5 980.5 1697.5 936.499 1741.5 925.499 1686.5 980.5 1411.5 980.5 1411.5 650.5 1741.5 650.5 1741.5 925.499" stroke="#41719C" stroke-width="4.58333" stroke-miterlimit="8" fill="none" fill-rule="evenodd"/><text fill="#FFFFFF" font-family="Yu Gothic,Yu Gothic_MSFontService,sans-serif" font-weight="400" font-size="46" transform="matrix(1 0 0 1 1532.67 747)">PnP<tspan font-size="46" x="-18.9063" y="55">DTDL</tspan><tspan font-size="46" x="-77.3438" y="110">(JSON File)</tspan></text><path d="M1741.5 813.208 2327.27 813.209 2327.27 817.792 1741.5 817.792ZM2322.68 801.75 2350.18 815.5 2322.68 829.25Z" fill="#4472C4"/><text font-family="Yu Gothic,Yu Gothic_MSFontService,sans-serif" font-weight="400" font-size="55" transform="matrix(1 0 0 1 1782.42 659)">Import <tspan font-size="55" x="0" y="66">Definitions </tspan><tspan font-size="55" x="0" y="132">of telemetry</tspan><tspan font-size="55" x="957.425" y="-173">Sending telemetry data </tspan><tspan font-size="55" x="957.425" y="-107">according to definitions</tspan></text><path d="M1.03878-0.483593 2.00597 1.59398-0.0715984 2.56116-1.03878 0.483593ZM2.97315 3.67154 3.94034 5.74911 1.86277 6.7163 0.895587 4.63873ZM4.90753 7.82668 5.87471 9.90425 3.79714 10.8714 2.82996 8.79387ZM6.8419 11.9818 7.80908 14.0594 5.73151 15.0266 4.76433 12.949ZM8.77627 16.137 9.74345 18.2145 7.66588 19.1817 6.6987 17.1041ZM10.7106 20.2921 11.6778 22.3697 9.60026 23.3368 8.63307 21.2593ZM12.645 24.4472 13.6122 26.5248 11.5346 27.492 10.5674 25.4144ZM14.5794 28.6024 15.5466 30.6799 13.469 31.6471 12.5018 29.5695ZM16.5138 32.7575 17.4809 34.8351 15.4034 35.8022 14.4362 33.7247ZM18.4481 36.9126 19.4153 38.9902 17.3377 39.9574 16.3706 37.8798ZM20.3825 41.0678 21.3497 43.1453 19.2721 44.1125 18.3049 42.035ZM22.3169 45.2229 23.2841 47.3005 21.2065 48.2677 20.2393 46.1901ZM24.2512 49.378 25.2184 51.4556 23.1409 52.4228 22.1737 50.3452ZM26.1856 53.5332 27.1528 55.6107 25.0752 56.5779 24.108 54.5004ZM28.12 57.6883 29.0872 59.7659 27.0096 60.7331 26.0424 58.6555ZM30.0544 61.8434 31.0215 63.921 28.944 64.8882 27.9768 62.8106ZM31.9887 65.9986 32.9559 68.0761 30.8783 69.0433 29.9112 66.9658ZM33.9231 70.1537 34.8903 72.2313 32.8127 73.1985 31.8455 71.1209ZM35.8575 74.3088 36.8247 76.3864 34.7471 77.3536 33.7799 75.276ZM37.7918 78.464 38.759 80.5415 36.6815 81.5087 35.7143 79.4312ZM39.7262 82.6191 40.6934 84.6967 38.6158 85.6639 37.6486 83.5863ZM41.6606 86.7742 42.6278 88.8518 40.5502 89.819 39.583 87.7414ZM43.595 90.9294 44.5621 93.0069 42.4846 93.9741 41.5174 91.8966ZM45.5293 95.0845 46.4965 97.1621 44.4189 98.1293 43.4518 96.0517ZM47.4637 99.2396 48.4309 101.317 46.3533 102.284 45.3861 100.207ZM49.3981 103.395 50.3653 105.472 48.2877 106.44 47.3205 104.362ZM51.3324 107.55 52.2996 109.627 50.2221 110.595 49.2549 108.517ZM53.2668 111.705 54.234 113.783 52.1564 114.75 51.1892 112.672ZM55.2012 115.86 56.1684 117.938 54.0908 118.905 53.1236 116.827ZM57.1356 120.015 58.1027 122.093 56.0252 123.06 55.058 120.983ZM59.0699 124.17 60.0371 126.248 57.9595 127.215 56.9924 125.138ZM61.0043 128.326 61.9715 130.403 59.8939 131.37 58.9267 129.293ZM62.9387 132.481 63.9059 134.558 61.8283 135.525 60.8611 133.448ZM64.873 136.636 65.8402 138.713 63.7627 139.681 62.7955 137.603ZM66.8074 140.791 67.7746 142.869 65.697 143.836 64.7299 141.758ZM68.7418 144.946 69.709 147.024 67.6314 147.991 66.6642 145.913ZM70.6762 149.101 71.6433 151.179 69.5658 152.146 68.5986 150.068ZM72.6105 153.256 73.5777 155.334 71.5002 156.301 70.533 154.224ZM74.5449 157.412 75.5121 159.489 73.4345 160.456 72.4673 158.379ZM76.4793 161.567 77.4465 163.644 75.3689 164.611 74.4017 162.534ZM78.4137 165.722 79.3808 167.799 77.3033 168.767 76.3361 166.689ZM80.348 169.877 81.3152 171.954 79.2376 172.922 78.2705 170.844ZM82.2824 174.032 83.2496 176.11 81.172 177.077 80.2048 174.999ZM84.2168 178.187 85.184 180.265 83.1064 181.232 82.1392 179.154ZM86.1511 182.342 87.1183 184.42 85.0408 185.387 84.0736 183.31ZM88.0855 186.497 89.0527 188.575 86.9751 189.542 86.0079 187.465ZM90.0199 190.653 90.9871 192.73 88.9095 193.697 87.9423 191.62ZM91.9543 194.808 92.9214 196.885 90.8439 197.853 89.8767 195.775ZM93.8886 198.963 94.8558 201.04 92.7782 202.008 91.8111 199.93ZM95.823 203.118 96.7902 205.196 94.7126 206.163 93.7454 204.085ZM97.7573 207.273 98.7245 209.351 96.647 210.318 95.6798 208.24ZM99.6917 211.428 100.659 213.506 98.5813 214.473 97.6141 212.395ZM101.626 215.583 102.593 217.661 100.516 218.628 99.5485 216.551ZM103.56 219.739 104.528 221.816 102.45 222.783 101.483 220.706ZM105.495 223.894 106.462 225.971 104.384 226.938 103.417 224.861ZM107.429 228.049 107.825 228.9 105.748 229.867 105.352 229.016ZM119.252 223.58C122.457 230.465 119.474 238.644 112.59 241.849 105.705 245.054 97.5262 242.071 94.3212 235.187 91.1162 228.302 94.099 220.123 100.983 216.918 107.868 213.713 116.047 216.696 119.252 223.58Z" fill="#4472C4" transform="matrix(-1 0 0 1 3077.79 586)"/><text font-family="Yu Gothic,Yu Gothic_MSFontService,sans-serif" font-weight="400" font-size="41" transform="matrix(1 0 0 1 3165.96 939)">IoT Hub<tspan font-size="41" x="-119.174" y="639">Time Series Insights</tspan></text><rect x="222" y="1096" width="2199" height="1055"/><text fill="#D4D4D4" font-family="Consolas,Consolas_MSFontService,sans-serif" font-weight="400" font-size="37" transform="matrix(1 0 0 1 254.645 1148)">{<tspan fill="#9CDCFE" font-size="37" x="40.1042" y="44">"@context"</tspan><tspan font-size="37" x="240.625" y="44">:</tspan><tspan fill="#CE9178" font-size="37" x="280.729" y="44">"dtmi:dtdl:context;2"</tspan><tspan font-size="37" x="701.823" y="44">,</tspan><tspan fill="#9CDCFE" font-size="37" x="40.1042" y="88">"@id"</tspan><tspan font-size="37" x="140.365" y="88">:</tspan><tspan fill="#CE9178" font-size="37" x="180.469" y="88">"dtmi:com:example:DevicePnP;1"</tspan><tspan font-size="37" x="782.031" y="88">,</tspan><tspan fill="#9CDCFE" font-size="37" x="40.1042" y="132">"@type"</tspan><tspan font-size="37" x="180.469" y="132">:</tspan><tspan fill="#CE9178" font-size="37" x="220.573" y="132">"Interface"</tspan><tspan font-size="37" x="441.146" y="132">,</tspan><tspan fill="#9CDCFE" font-size="37" x="40.1042" y="176">"</tspan><tspan fill="#9CDCFE" font-size="37" x="60.1562" y="176">displayName</tspan><tspan fill="#9CDCFE" font-size="37" x="280.729" y="176">"</tspan><tspan font-size="37" x="300.781" y="176">:</tspan><tspan fill="#CE9178" font-size="37" x="340.885" y="176">"</tspan><tspan fill="#CE9178" font-size="37" x="360.937" y="176">DevicePnP</tspan><tspan fill="#CE9178" font-size="37" x="541.406" y="176">"</tspan><tspan font-size="37" x="561.458" y="176">,</tspan><tspan fill="#9CDCFE" font-size="37" x="40.1042" y="220">"contents"</tspan><tspan font-size="37" x="240.625" y="220">:</tspan><tspan font-size="37" x="280.729" y="220">[</tspan><tspan font-size="37" x="80.2083" y="264">{</tspan><tspan fill="#9CDCFE" font-size="37" x="120.312" y="308">"@type"</tspan><tspan font-size="37" x="260.677" y="308">:</tspan><tspan fill="#CE9178" font-size="37" x="300.781" y="308">"Telemetry"</tspan><tspan font-size="37" x="521.354" y="308">,</tspan><tspan fill="#9CDCFE" font-size="37" x="120.312" y="352">"name"</tspan><tspan font-size="37" x="240.625" y="352">:</tspan><tspan fill="#CE9178" font-size="37" x="280.729" y="352">"temperature"</tspan><tspan font-size="37" x="541.406" y="352">,</tspan><tspan fill="#9CDCFE" font-size="37" x="120.312" y="396">"schema"</tspan><tspan font-size="37" x="280.729" y="396">:</tspan><tspan fill="#CE9178" font-size="37" x="320.833" y="396">"double"</tspan><tspan font-size="37" x="481.25" y="396">,</tspan><tspan fill="#9CDCFE" font-size="37" x="120.312" y="440">"description"</tspan><tspan font-size="37" x="380.99" y="440">:</tspan><tspan fill="#CE9178" font-size="37" x="421.094" y="440">"kind=</tspan><tspan fill="#CE9178" font-size="37" x="541.406" y="440">delta</tspan><tspan fill="#CE9178" font-size="37" x="641.667" y="440">-</tspan><tspan fill="#CE9178" font-size="37" x="661.719" y="440">prop;initial</tspan><tspan fill="#CE9178" font-size="37" x="902.344" y="440">=25.0;target=30.0;coef=0.01;noise=0.01"</tspan><tspan font-size="37" x="80.2083" y="484">},</tspan><tspan font-size="37" x="80.2083" y="528">{</tspan><tspan fill="#9CDCFE" font-size="37" x="120.312" y="572">"@type"</tspan><tspan font-size="37" x="260.677" y="572">:</tspan><tspan fill="#CE9178" font-size="37" x="300.781" y="572">"Telemetry"</tspan><tspan font-size="37" x="521.354" y="572">,</tspan><tspan fill="#9CDCFE" font-size="37" x="120.312" y="616">"name"</tspan><tspan font-size="37" x="240.625" y="616">:</tspan><tspan fill="#CE9178" font-size="37" x="280.729" y="616">"accelerometer"</tspan><tspan font-size="37" x="581.51" y="616">,</tspan><tspan fill="#9CDCFE" font-size="37" x="120.312" y="660">"schema"</tspan><tspan font-size="37" x="280.729" y="660">:</tspan><tspan font-size="37" x="320.833" y="660">{</tspan><tspan fill="#9CDCFE" font-size="37" x="160.417" y="704">"@type"</tspan><tspan font-size="37" x="300.781" y="704">:</tspan><tspan fill="#CE9178" font-size="37" x="340.885" y="704">"Object"</tspan><tspan font-size="37" x="501.302" y="704">,</tspan><tspan fill="#9CDCFE" font-size="37" x="160.417" y="748">"fields"</tspan><tspan font-size="37" x="320.833" y="748">:</tspan><tspan font-size="37" x="360.937" y="748">[</tspan><tspan font-size="37" x="200.521" y="792">{</tspan><tspan fill="#9CDCFE" font-size="37" x="240.625" y="836">"name"</tspan><tspan font-size="37" x="360.937" y="836">:</tspan><tspan fill="#CE9178" font-size="37" x="401.042" y="836">"x"</tspan>,<tspan fill="#9CDCFE" font-size="37" x="240.625" y="880">"schema"</tspan><tspan font-size="37" x="401.042" y="880">:</tspan><tspan fill="#CE9178" font-size="37" x="441.146" y="880">"double"</tspan>,<tspan fill="#9CDCFE" font-size="37" x="240.625" y="924">"description"</tspan><tspan font-size="37" x="501.302" y="924">:</tspan><tspan fill="#CE9178" font-size="37" x="541.406" y="924">"kind=</tspan><tspan fill="#CE9178" font-size="37" x="661.719" y="924">circular;radius</tspan><tspan fill="#CE9178" font-size="37" x="962.5" y="924">=1.0;phase=0.0;frequency=1000;initial=0.0;noise=0.01"</tspan><tspan font-size="37" x="200.521" y="968">},</tspan></text><path d="M1387 1096 1491.81 939 1516 1096Z" fill-rule="evenodd"/><g clip-path="url(#clip22)" filter="url(#fx4)" transform="translate(1271 1656)"><g clip-path="url(#clip23)"><path d="M58.3485-41.3037 44.7223-1.2085 41.258-1.2085 49.837-26.4526 53.9245-38.3228 53.3068-38.3228C52.1493-36.4966 49.5668-32.6115 45.5595-26.6675L27.8839-1.2085 23.2111-1.2085 22.974-26.6675C22.9326-30.3914 22.9638-34.2765 23.0676-38.3228L22.4768-38.3228C22.1973-37.5529 21.9146-36.7472 21.6287-35.9058L18.4782-26.3989 9.91764-1.2085 6.61442-1.2085 20.2406-41.3037 26.3368-41.3037 26.4954-16.167C26.5405-12.085 26.5238-8.16406 26.4455-4.4043L27.0095-4.4043C31.1553-10.5452 33.7854-14.4124 34.8999-16.0059L52.3061-41.3037ZM62.7274-22.3169C65.9749-27.0256 70.3827-29.3799 75.9508-29.3799 82.4498-29.3799 84.6649-26.3363 82.5962-20.249L79.3014-10.5542C78.054-6.88395 77.2191-3.76872 76.7967-1.2085L73.6009-1.2085C73.7271-2.26481 74.0688-3.87614 74.626-6.04248 70.9617-2.37223 67.0258-0.537109 62.8184-0.537109 59.9001-0.537109 57.9572-1.37858 56.9895-3.06152 56.1632-4.47591 56.1272-6.29313 56.8817-8.51318 58.573-13.4904 62.6926-16.4982 69.2402-17.5366 71.7971-17.9484 74.9412-18.2438 78.6724-18.4228L79.1743-19.8999C80.0624-22.5138 80.1071-24.3311 79.3081-25.3516 78.6099-26.2467 77.1686-26.6943 74.9844-26.6943 71.0456-26.6943 67.8944-24.8503 65.5308-21.1621ZM77.8143-15.8984C75.0389-15.8447 72.1366-15.5493 69.1072-15.0122 64.3988-14.117 61.4787-12.0044 60.3469-8.67432 59.7384-6.88395 59.8429-5.50537 60.6603-4.53857 61.3826-3.6613 62.6032-3.22266 64.3219-3.22266 68.0101-3.22266 71.747-5.20996 75.5328-9.18457ZM109.332-29.3799 107.904-25.9692C105.971-25.9692 103.897-25.1367 101.685-23.4717 99.6215-21.932 97.761-19.882 96.1033-17.3218L90.6273-1.2085 87.2703-1.2085 96.616-28.7085 99.8656-28.7085 97.4377-21.5649C99.4429-24.3042 101.59-26.3542 103.878-27.7148 105.76-28.8249 107.578-29.3799 109.332-29.3799ZM137.615-28.7085 124.362-18.3154 129.102-1.2085 125.262-1.2085 121.286-16.0596 113.836-10.3394 110.733-1.2085 107.322-1.2085 121.195-42.0288 124.606-42.0288 115.123-14.126 133.453-28.7085ZM177.583-22.8809 173.887-21.7261C173.975-25.0382 172.3-26.6943 168.862-26.6943 166.785-26.6943 165.028-26.2378 163.589-25.3247 162.355-24.5369 161.528-23.5254 161.108-22.29 160.585-20.7503 160.682-19.6134 161.399-18.8794 162.033-18.217 163.369-17.644 165.407-17.1606L167.445-16.6772C170.579-15.8895 172.563-14.8511 173.396-13.562 174.164-12.3983 174.186-10.7511 173.462-8.6206 172.604-6.09619 170.95-4.09993 168.5-2.63184 166.181-1.23535 163.437-0.537109 160.268-0.537109 154.736-0.537109 151.874-2.75716 151.682-7.19727L155.414-8.45947C155.445-4.96826 157.385-3.22266 161.234-3.22266 163.777-3.22266 165.854-3.80452 167.467-4.96826 168.702-5.86344 169.545-6.97347 169.996-8.29834 170.573-9.99918 170.507-11.2256 169.796-11.9775 169.12-12.6758 167.632-13.3024 165.332-13.8574L163.303-14.3677C160.312-15.1017 158.445-16.1401 157.702-17.4829 157.088-18.575 157.107-20.0789 157.758-21.9946 158.543-24.3042 160.068-26.1304 162.332-27.4731 164.447-28.7443 166.946-29.3799 169.829-29.3799 174.788-29.3799 177.373-27.2135 177.583-22.8809ZM192.839-28.7085 183.493-1.2085 180.083-1.2085 189.429-28.7085ZM197.405-39.7729 195.662-34.6436 190.613-34.6436 192.356-39.7729ZM207.001-28.7085 205.267-23.606C209.44-27.4552 213.191-29.3799 216.521-29.3799 218.526-29.3799 220.003-28.7712 220.949-27.5537 221.778-26.5153 222.035-25.2173 221.721-23.6597 225.81-27.4731 229.573-29.3799 233.01-29.3799 235.427-29.3799 237.052-28.6011 237.883-27.0435 238.632-25.6649 238.626-23.8566 237.865-21.6187L230.929-1.2085 227.519-1.2085 233.971-20.1953C235.352-24.2594 234.369-26.2915 231.021-26.2915 229.499-26.2915 227.749-25.7007 225.773-24.519 224.107-23.5164 222.478-22.2005 220.886-20.5713L214.306-1.2085 210.895-1.2085 217.347-20.1953C218.729-24.2594 217.808-26.2915 214.585-26.2915 213.063-26.2915 211.341-25.7275 209.418-24.5996 207.705-23.6149 206.013-22.2721 204.343-20.5713L197.763-1.2085 194.406-1.2085 203.751-28.7085ZM272.251-28.7085 262.905-1.2085 259.602-1.2085 261.381-6.44531C259.483-4.49381 257.378-2.98991 255.068-1.93359 253.069-1.0026 251.174-0.537109 249.383-0.537109 246.913-0.537109 245.223-1.28011 244.313-2.76611 243.451-4.12679 243.409-5.95296 244.188-8.24463L251.142-28.7085 254.607-28.7085 248.008-9.29199C246.712-5.47852 247.819-3.57178 251.328-3.57178 253.029-3.57178 254.966-4.18945 257.141-5.4248 259.028-6.49902 260.746-7.8418 262.296-9.45312L268.84-28.7085ZM291.324-42.0288 277.452-1.2085 274.041-1.2085 287.914-42.0288ZM294.759-22.3169C298.006-27.0256 302.414-29.3799 307.982-29.3799 314.481-29.3799 316.696-26.3363 314.627-20.249L311.333-10.5542C310.085-6.88395 309.25-3.76872 308.828-1.2085L305.632-1.2085C305.758-2.26481 306.1-3.87614 306.657-6.04248 302.993-2.37223 299.057-0.537109 294.85-0.537109 291.931-0.537109 289.988-1.37858 289.021-3.06152 288.194-4.47591 288.158-6.29313 288.913-8.51318 290.604-13.4904 294.724-16.4982 301.271-17.5366 303.828-17.9484 306.972-18.2438 310.704-18.4228L311.206-19.8999C312.094-22.5138 312.138-24.3311 311.339-25.3516 310.641-26.2467 309.2-26.6943 307.016-26.6943 303.077-26.6943 299.926-24.8503 297.562-21.1621ZM309.846-15.8984C307.07-15.8447 304.168-15.5493 301.138-15.0122 296.43-14.117 293.51-12.0044 292.378-8.67432 291.77-6.88395 291.874-5.50537 292.692-4.53857 293.414-3.6613 294.634-3.22266 296.353-3.22266 300.041-3.22266 303.778-5.20996 307.564-9.18457ZM336.777-38.5644 333.428-28.7085 340.356-28.7085 339.425-25.9692 332.496-25.9692 326.418-8.0835C325.317-4.84294 326.127-3.22266 328.848-3.22266 330.03-3.22266 331.266-3.35693 332.557-3.62549L331.366-0.832519C330.153-0.635579 328.822-0.537109 327.372-0.537109 322.753-0.537109 321.222-2.82878 322.779-7.41211L329.086-25.9692 324.359-25.9692 325.29-28.7085 330.017-28.7085 333.102-37.7856ZM351.537-28.7085 342.191-1.2085 338.781-1.2085 348.126-28.7085ZM356.103-39.7729 354.36-34.6436 349.311-34.6436 351.054-39.7729ZM372.614-29.3799C376.284-29.3799 378.71-27.9297 379.89-25.0293 380.942-22.4333 380.78-19.1121 379.405-15.0659 377.811-10.3752 375.313-6.68701 371.912-4.00146 369.014-1.69189 365.963-0.537109 362.758-0.537109 359.034-0.537109 356.597-2.00521 355.446-4.94141 354.425-7.51953 354.604-10.8407 355.986-14.9048 357.58-19.5955 360.066-23.2747 363.443-25.9424 366.334-28.234 369.391-29.3799 372.614-29.3799ZM371.665-26.5869C368.944-26.5869 366.468-25.4411 364.239-23.1494 362.263-21.1263 360.696-18.4139 359.54-15.0122 358.202-11.0734 358.003-8.06559 358.944-5.98877 359.774-4.21631 361.362-3.33008 363.707-3.33008 366.411-3.33008 368.889-4.48486 371.142-6.79443 373.125-8.83545 374.7-11.5747 375.868-15.0122 377.189-18.8973 377.375-21.8693 376.428-23.9282 375.598-25.7007 374.01-26.5869 371.665-26.5869ZM396.69-28.7085 394.956-23.606C399.344-27.4552 403.346-29.3799 406.962-29.3799 409.451-29.3799 411.129-28.6011 411.996-27.0435 412.781-25.6649 412.793-23.8566 412.032-21.6187L405.096-1.2085 401.631-1.2085 408.084-20.1953C409.465-24.2594 408.455-26.2915 405.053-26.2915 401.866-26.2915 398.193-24.3848 394.032-20.5713L387.452-1.2085 384.041-1.2085 393.387-28.7085ZM457.166-22.8809 453.471-21.7261C453.558-25.0382 451.883-26.6943 448.445-26.6943 446.369-26.6943 444.611-26.2378 443.173-25.3247 441.938-24.5369 441.111-23.5254 440.691-22.29 440.168-20.7503 440.265-19.6134 440.982-18.8794 441.617-18.217 442.953-17.644 444.99-17.1606L447.028-16.6772C450.162-15.8895 452.146-14.8511 452.979-13.562 453.747-12.3983 453.769-10.7511 453.045-8.6206 452.187-6.09619 450.533-4.09993 448.083-2.63184 445.764-1.23535 443.02-0.537109 439.851-0.537109 434.319-0.537109 431.457-2.75716 431.265-7.19727L434.997-8.45947C435.028-4.96826 436.968-3.22266 440.818-3.22266 443.36-3.22266 445.438-3.80452 447.051-4.96826 448.286-5.86344 449.128-6.97347 449.579-8.29834 450.157-9.99918 450.09-11.2256 449.379-11.9775 448.703-12.6758 447.215-13.3024 444.915-13.8574L442.886-14.3677C439.895-15.1017 438.028-16.1401 437.285-17.4829 436.671-18.575 436.69-20.0789 437.341-21.9946 438.126-24.3042 439.651-26.1304 441.915-27.4731 444.031-28.7443 446.529-29.3799 449.412-29.3799 454.371-29.3799 456.956-27.2135 457.166-22.8809ZM472.315-28.7085 470.818-24.3042C474.135-27.688 477.529-29.3799 481.003-29.3799 484.458-29.3799 486.705-27.9565 487.742-25.1099 488.674-22.5317 488.441-19.1838 487.042-15.0659 485.435-10.3394 482.955-6.62435 479.602-3.9209 476.812-1.66504 473.922-0.537109 470.932-0.537109 467.512-0.537109 465.387-2.2111 464.555-5.55908L459.69 8.75488 456.28 8.75488 469.012-28.7085ZM469.767-20.8936 465.66-8.80859C466.508-5.24577 468.436-3.46436 471.444-3.46436 474.004-3.46436 476.41-4.59229 478.663-6.84814 480.741-8.90706 482.358-11.6374 483.514-15.0391 484.828-18.9062 485.015-21.8783 484.074-23.9551 483.279-25.6738 481.79-26.5332 479.605-26.5332 476.347-26.5332 473.067-24.6533 469.767-20.8936ZM517.869-14.6899 497.915-14.6899C496.607-10.8407 496.531-7.8776 497.687-5.80078 498.661-4.08203 500.356-3.22266 502.773-3.22266 506.73-3.22266 509.995-5.19206 512.569-9.13086L515.354-7.92236C511.783-2.99886 507.267-0.537109 501.807-0.537109 497.958-0.537109 495.419-1.99626 494.19-4.91455 493.097-7.49267 493.244-10.8228 494.631-14.9048 496.213-19.5597 498.726-23.2389 502.169-25.9424 505.079-28.234 508.127-29.3799 511.314-29.3799 514.948-29.3799 517.362-27.9744 518.555-25.1636 519.619-22.6571 519.491-19.4613 518.17-15.5762ZM515.334-17.2681C516.167-20.4549 516.057-22.8719 515.006-24.519 514.108-25.9334 512.585-26.6406 510.436-26.6406 507.966-26.6406 505.635-25.6828 503.444-23.7671 501.518-22.102 500.003-19.9357 498.899-17.2681ZM549.701-21.5112 546.007-20.5176C546.397-24.5638 544.757-26.5869 541.087-26.5869 538.384-26.5869 535.909-25.4411 533.662-23.1494 531.679-21.1084 530.112-18.396 528.962-15.0122 527.624-11.0734 527.443-8.06559 528.42-5.98877 529.25-4.21631 530.838-3.33008 533.183-3.33008 537.05-3.33008 540.176-5.389 542.56-9.50683L545.463-8.40576C541.961-3.15999 537.552-0.537109 532.234-0.537109 528.439-0.537109 525.971-1.99626 524.832-4.91455 523.823-7.47477 524.015-10.8048 525.408-14.9048 527.002-19.5955 529.479-23.2747 532.838-25.9424 535.73-28.234 538.796-29.3799 542.036-29.3799 544.74-29.3799 546.749-28.6279 548.064-27.124 549.273-25.7812 549.818-23.9103 549.701-21.5112ZM579.558-28.7085 570.212-1.2085 566.802-1.2085 576.147-28.7085ZM584.124-39.7729 582.381-34.6436 577.332-34.6436 579.075-39.7729ZM593.773-28.7085 592.039-23.606C596.427-27.4552 600.429-29.3799 604.046-29.3799 606.534-29.3799 608.212-28.6011 609.079-27.0435 609.864-25.6649 609.876-23.8566 609.115-21.6187L602.179-1.2085 598.715-1.2085 605.167-20.1953C606.548-24.2594 605.538-26.2915 602.136-26.2915 598.949-26.2915 595.276-24.3848 591.116-20.5713L584.535-1.2085 581.125-1.2085 590.47-28.7085ZM663.443-42.0288 649.57-1.2085 646.267-1.2085 647.709-5.45166C644.554-2.17529 641.231-0.537109 637.74-0.537109 634.285-0.537109 632.024-1.99626 630.956-4.91455 629.989-7.54639 630.208-10.9302 631.613-15.0659 633.214-19.7746 635.633-23.4448 638.873-26.0767 641.573-28.2788 644.409-29.3799 647.381-29.3799 650.819-29.3799 653.058-27.7775 654.099-24.5728L660.032-42.0288ZM652.849-20.8936C652.163-24.5638 650.181-26.3989 646.905-26.3989 644.363-26.3989 641.998-25.2889 639.812-23.0688 637.823-21.0636 636.257-18.3781 635.113-15.0122 633.793-11.1271 633.666-8.14616 634.733-6.06934 635.593-4.33268 637.142-3.46436 639.38-3.46436 642.388-3.46436 645.508-5.24577 648.742-8.80859ZM686.879-14.6899 666.926-14.6899C665.618-10.8407 665.542-7.8776 666.698-5.80078 667.671-4.08203 669.367-3.22266 671.784-3.22266 675.74-3.22266 679.006-5.19206 681.58-9.13086L684.365-7.92236C680.794-2.99886 676.278-0.537109 670.817-0.537109 666.968-0.537109 664.429-1.99626 663.201-4.91455 662.108-7.49267 662.255-10.8228 663.642-14.9048 665.224-19.5597 667.736-23.2389 671.18-25.9424 674.089-28.234 677.137-29.3799 680.324-29.3799 683.958-29.3799 686.372-27.9744 687.565-25.1636 688.629-22.6571 688.501-19.4613 687.181-15.5762ZM684.345-17.2681C685.177-20.4549 685.068-22.8719 684.016-24.519 683.118-25.9334 681.595-26.6406 679.447-26.6406 676.976-26.6406 674.645-25.6828 672.455-23.7671 670.528-22.102 669.013-19.9357 667.909-17.2681ZM717.271-22.8809 713.575-21.7261C713.662-25.0382 711.987-26.6943 708.55-26.6943 706.473-26.6943 704.715-26.2378 703.277-25.3247 702.042-24.5369 701.215-23.5254 700.795-22.29 700.272-20.7503 700.369-19.6134 701.086-18.8794 701.721-18.217 703.057-17.644 705.094-17.1606L707.133-16.6772C710.266-15.8895 712.25-14.8511 713.083-13.562 713.851-12.3983 713.873-10.7511 713.149-8.6206 712.291-6.09619 710.637-4.09993 708.187-2.63184 705.868-1.23535 703.124-0.537109 699.955-0.537109 694.423-0.537109 691.561-2.75716 691.369-7.19727L695.101-8.45947C695.132-4.96826 697.073-3.22266 700.922-3.22266 703.464-3.22266 705.542-3.80452 707.155-4.96826 708.39-5.86344 709.233-6.97347 709.683-8.29834 710.261-9.99918 710.194-11.2256 709.483-11.9775 708.807-12.6758 707.319-13.3024 705.019-13.8574L702.99-14.3677C699.999-15.1017 698.132-16.1401 697.389-17.4829 696.776-18.575 696.794-20.0789 697.445-21.9946 698.23-24.3042 699.755-26.1304 702.02-27.4731 704.135-28.7443 706.633-29.3799 709.516-29.3799 714.475-29.3799 717.06-27.2135 717.271-22.8809ZM746.785-21.5112 743.09-20.5176C743.481-24.5638 741.841-26.5869 738.17-26.5869 735.467-26.5869 732.992-25.4411 730.745-23.1494 728.762-21.1084 727.196-18.396 726.046-15.0122 724.707-11.0734 724.526-8.06559 725.504-5.98877 726.333-4.21631 727.921-3.33008 730.267-3.33008 734.134-3.33008 737.259-5.389 739.644-9.50683L742.546-8.40576C739.044-3.15999 734.635-0.537109 729.317-0.537109 725.522-0.537109 723.055-1.99626 721.916-4.91455 720.906-7.47477 721.098-10.8048 722.491-14.9048 724.085-19.5955 726.562-23.2747 729.922-25.9424 732.813-28.234 735.879-29.3799 739.12-29.3799 741.823-29.3799 743.832-28.6279 745.147-27.124 746.356-25.7812 746.902-23.9103 746.785-21.5112ZM770.478-29.3799 769.05-25.9692C767.116-25.9692 765.043-25.1367 762.83-23.4717 760.767-21.932 758.907-19.882 757.249-17.3218L751.773-1.2085 748.416-1.2085 757.762-28.7085 761.011-28.7085 758.583-21.5649C760.589-24.3042 762.736-26.3542 765.024-27.7148 766.905-28.8249 768.723-29.3799 770.478-29.3799ZM781.225-28.7085 771.879-1.2085 768.468-1.2085 777.814-28.7085ZM785.79-39.7729 784.047-34.6436 778.998-34.6436 780.742-39.7729ZM795.44-28.7085 793.943-24.3042C797.26-27.688 800.654-29.3799 804.128-29.3799 807.583-29.3799 809.83-27.9565 810.867-25.1099 811.799-22.5317 811.566-19.1838 810.167-15.0659 808.56-10.3394 806.08-6.62435 802.727-3.9209 799.937-1.66504 797.047-0.537109 794.057-0.537109 790.637-0.537109 788.512-2.2111 787.68-5.55908L782.815 8.75488 779.405 8.75488 792.137-28.7085ZM792.892-20.8936 788.784-8.80859C789.633-5.24577 791.561-3.46436 794.568-3.46436 797.129-3.46436 799.535-4.59229 801.788-6.84814 803.866-8.90706 805.483-11.6374 806.639-15.0391 807.953-18.9062 808.14-21.8783 807.199-23.9551 806.404-25.6738 804.915-26.5332 802.73-26.5332 799.472-26.5332 796.192-24.6533 792.892-20.8936ZM832.35-38.5644 829-28.7085 835.929-28.7085 834.998-25.9692 828.069-25.9692 821.991-8.0835C820.89-4.84294 821.7-3.22266 824.421-3.22266 825.603-3.22266 826.839-3.35693 828.13-3.62549L826.939-0.832519C825.726-0.635579 824.395-0.537109 822.945-0.537109 818.325-0.537109 816.795-2.82878 818.352-7.41211L824.659-25.9692 819.932-25.9692 820.863-28.7085 825.59-28.7085 828.674-37.7856ZM847.11-28.7085 837.764-1.2085 834.354-1.2085 843.699-28.7085ZM851.676-39.7729 849.933-34.6436 844.884-34.6436 846.627-39.7729ZM868.187-29.3799C871.857-29.3799 874.283-27.9297 875.463-25.0293 876.514-22.4333 876.353-19.1121 874.978-15.0659 873.383-10.3752 870.886-6.68701 867.485-4.00146 864.587-1.69189 861.536-0.537109 858.331-0.537109 854.607-0.537109 852.17-2.00521 851.019-4.94141 849.998-7.51953 850.177-10.8407 851.558-14.9048 853.153-19.5955 855.639-23.2747 859.016-25.9424 861.907-28.234 864.964-29.3799 868.187-29.3799ZM867.238-26.5869C864.516-26.5869 862.041-25.4411 859.812-23.1494 857.836-21.1263 856.269-18.4139 855.113-15.0122 853.774-11.0734 853.576-8.06559 854.517-5.98877 855.347-4.21631 856.935-3.33008 859.28-3.33008 861.984-3.33008 864.462-4.48486 866.715-6.79443 868.698-8.83545 870.273-11.5747 871.441-15.0122 872.762-18.8973 872.948-21.8693 872.001-23.9282 871.171-25.7007 869.583-26.5869 867.238-26.5869ZM892.263-28.7085 890.529-23.606C894.916-27.4552 898.919-29.3799 902.535-29.3799 905.024-29.3799 906.702-28.6011 907.568-27.0435 908.353-25.6649 908.366-23.8566 907.605-21.6187L900.669-1.2085 897.204-1.2085 903.657-20.1953C905.038-24.2594 904.028-26.2915 900.626-26.2915 897.439-26.2915 893.765-24.3848 889.605-20.5713L883.025-1.2085 879.614-1.2085 888.96-28.7085Z" fill="#E7E6E6" transform="matrix(1 0 0 1 38.7217 72)"/></g></g><text fill="#E7E6E6" font-family="Yu Gothic,Yu Gothic_MSFontService,sans-serif" font-style="oblique" font-weight="400" font-size="55" transform="matrix(1 0 0 1 1306.88 1726)">Mark simulation spec in description</text><path d="M399 1607 1945.76 1607" stroke="#E7E6E6" stroke-width="2.29167" stroke-miterlimit="8" fill="none" fill-rule="evenodd"/><path d="M1272.87 1708.67 1271.24 1707.05 1272.85 1705.43 1274.48 1707.04ZM1269.61 1705.44 1267.98 1703.83 1269.6 1702.2 1271.23 1703.81ZM1266.36 1702.21 1264.73 1700.6 1266.34 1698.97 1267.97 1700.59ZM1263.1 1698.99 1261.48 1697.37 1263.09 1695.74 1264.72 1697.36ZM1259.85 1695.76 1258.22 1694.14 1259.84 1692.52 1261.46 1694.13ZM1256.6 1692.53 1254.97 1690.92 1256.58 1689.29 1258.21 1690.9ZM1253.34 1689.3 1251.71 1687.69 1253.33 1686.06 1254.96 1687.68ZM1250.09 1686.07 1248.46 1684.46 1250.07 1682.83 1251.7 1684.45ZM1246.83 1682.85 1245.21 1681.23 1246.82 1679.61 1248.45 1681.22ZM1243.58 1679.62 1241.95 1678 1243.57 1676.38 1245.19 1677.99ZM1240.33 1676.39 1238.7 1674.78 1240.31 1673.15 1241.94 1674.76ZM1237.07 1673.16 1235.45 1671.55 1237.06 1669.92 1238.69 1671.54ZM1233.82 1669.94 1232.19 1668.32 1233.81 1666.69 1235.43 1668.31ZM1230.56 1666.71 1228.94 1665.09 1230.55 1663.47 1232.18 1665.08ZM1227.31 1663.48 1225.68 1661.87 1227.3 1660.24 1228.92 1661.85ZM1224.06 1660.25 1222.43 1658.64 1224.04 1657.01 1225.67 1658.62ZM1220.8 1657.02 1219.18 1655.41 1220.79 1653.78 1222.42 1655.4ZM1217.55 1653.8 1215.92 1652.18 1217.54 1650.56 1219.16 1652.17ZM1214.29 1650.57 1212.67 1648.95 1214.28 1647.33 1215.91 1648.94ZM1211.04 1647.34 1209.41 1645.73 1211.03 1644.1 1212.65 1645.71ZM1207.79 1644.11 1206.16 1642.5 1207.77 1640.87 1209.4 1642.49ZM1204.53 1640.89 1202.91 1639.27 1204.52 1637.64 1206.15 1639.26ZM1201.28 1637.66 1199.65 1636.04 1201.27 1634.42 1202.89 1636.03ZM1198.02 1634.43 1196.4 1632.82 1198.01 1631.19 1199.64 1632.8ZM1194.77 1631.2 1193.14 1629.59 1194.76 1627.96 1196.38 1629.57ZM1191.52 1627.97 1189.89 1626.36 1191.5 1624.73 1193.13 1626.35ZM1188.26 1624.75 1186.64 1623.13 1188.25 1621.51 1189.88 1623.12ZM1185.01 1621.52 1183.38 1619.9 1185 1618.28 1186.62 1619.89ZM1181.75 1618.29 1180.13 1616.68 1181.74 1615.05 1183.37 1616.66ZM1178.5 1615.06 1176.87 1613.45 1178.49 1611.82 1180.11 1613.44ZM1175.25 1611.83 1173.62 1610.22 1175.23 1608.59 1176.86 1610.21ZM1171.99 1608.61 1171.19 1607.81 1172.81 1606.19 1173.61 1606.98ZM1162.32 1616.76C1156.93 1611.41 1156.89 1602.71 1162.24 1597.32 1167.59 1591.93 1176.29 1591.89 1181.68 1597.24 1187.07 1602.59 1187.11 1611.29 1181.76 1616.68 1176.41 1622.07 1167.71 1622.11 1162.32 1616.76Z" fill="#E7E6E6"/><path d="M501 2085 2292.27 2085" stroke="#E7E6E6" stroke-width="2.29167" stroke-miterlimit="8" fill="none" fill-rule="evenodd"/></g></svg>